REM DIRINDEX 1\2,1\4,1\3\5,1\3\6,1\3\7
REM DIRNAME folder01,folder02,folder03,folder04,folder05,folder06,folder07
TITLE ""
FILE "CD3Track22.mp3" MP3
  TRACK 01 AUDIO
    TITLE "0:"
    INDEX 01 00:00:00
  TRACK 02 AUDIO
    TITLE "4:cjc081_2670"
    INDEX 01 00:00:25
  TRACK 03 AUDIO
    TITLE "0:"
    INDEX 01 00:04:36
  TRACK 04 AUDIO
    TITLE "5:cjc081_2671"
    INDEX 01 00:05:03
  TRACK 05 AUDIO
    TITLE "0:"
    INDEX 01 00:06:37
  TRACK 06 AUDIO
    TITLE "6:cjc081_2672"
    INDEX 01 00:07:05
  TRACK 07 AUDIO
    TITLE "0:"
    INDEX 01 00:08:19
  TRACK 08 AUDIO
    TITLE "5:cjc081_2673"
    INDEX 01 00:08:64
  TRACK 09 AUDIO
    TITLE "0:"
    INDEX 01 00:09:73
  TRACK 10 AUDIO
    TITLE "6:cjc081_2674"
    INDEX 01 00:10:49
  TRACK 11 AUDIO
    TITLE "0:"
    INDEX 01 00:14:62
  TRACK 12 AUDIO
    TITLE "5:cjc081_2675"
    INDEX 01 00:15:30
  TRACK 13 AUDIO
    TITLE "0:"
    INDEX 01 00:16:59
  TRACK 14 AUDIO
    TITLE "6:cjc081_2676"
    INDEX 01 00:17:31
  TRACK 15 AUDIO
    TITLE "0:"
    INDEX 01 00:20:65
  TRACK 16 AUDIO
    TITLE "5:cjc081_2677"
    INDEX 01 00:21:33
  TRACK 17 AUDIO
    TITLE "0:"
    INDEX 01 00:22:68
  TRACK 18 AUDIO
    TITLE "6:cjc081_2678"
    INDEX 01 00:23:42
  TRACK 19 AUDIO
    TITLE "0:"
    INDEX 01 00:25:29
  TRACK 20 AUDIO
    TITLE "5:cjc081_2679"
    INDEX 01 00:25:74
  TRACK 21 AUDIO
    TITLE "0:"
    INDEX 01 00:27:10
  TRACK 22 AUDIO
    TITLE "6:cjc081_2680"
    INDEX 01 00:27:57
  TRACK 23 AUDIO
    TITLE "0:"
    INDEX 01 00:29:40
  TRACK 24 AUDIO
    TITLE "5:cjc081_2681"
    INDEX 01 00:30:10
  TRACK 25 AUDIO
    TITLE "0:"
    INDEX 01 00:31:37
  TRACK 26 AUDIO
    TITLE "6:cjc081_2682"
    INDEX 01 00:32:05
  TRACK 27 AUDIO
    TITLE "0:"
    INDEX 01 00:33:40
  TRACK 28 AUDIO
    TITLE "5:cjc081_2683"
    INDEX 01 00:34:08
  TRACK 29 AUDIO
    TITLE "0:"
    INDEX 01 00:35:23
  TRACK 30 AUDIO
    TITLE "6:cjc081_2684"
    INDEX 01 00:35:70
  TRACK 31 AUDIO
    TITLE "0:"
    INDEX 01 00:37:08
  TRACK 32 AUDIO
    TITLE "5:cjc081_2685"
    INDEX 01 00:37:54
  TRACK 33 AUDIO
    TITLE "0:"
    INDEX 01 00:38:65
  TRACK 34 AUDIO
    TITLE "6:cjc081_2686"
    INDEX 01 00:39:39
  TRACK 35 AUDIO
    TITLE "0:"
    INDEX 01 00:41:38
  TRACK 36 AUDIO
    TITLE "5:cjc081_2687"
    INDEX 01 00:42:04
  TRACK 37 AUDIO
    TITLE "0:"
    INDEX 01 00:43:13
  TRACK 38 AUDIO
    TITLE "6:cjc081_2688"
    INDEX 01 00:43:60
  TRACK 39 AUDIO
    TITLE "0:"
    INDEX 01 00:45:53
  TRACK 40 AUDIO
    TITLE "5:cjc081_2689"
    INDEX 01 00:46:25
  TRACK 41 AUDIO
    TITLE "0:"
    INDEX 01 00:47:36
  TRACK 42 AUDIO
    TITLE "6:cjc081_2690"
    INDEX 01 00:48:08
  TRACK 43 AUDIO
    TITLE "0:"
    INDEX 01 00:49:31
  TRACK 44 AUDIO
    TITLE "5:cjc081_2691"
    INDEX 01 00:50:01
  TRACK 45 AUDIO
    TITLE "0:"
    INDEX 01 00:51:30
  TRACK 46 AUDIO
    TITLE "6:cjc081_2692"
    INDEX 01 00:52:04
  TRACK 47 AUDIO
    TITLE "0:"
    INDEX 01 00:53:47
  TRACK 48 AUDIO
    TITLE "5:cjc081_2693"
    INDEX 01 00:54:13
  TRACK 49 AUDIO
    TITLE "0:"
    INDEX 01 00:55:44
  TRACK 50 AUDIO
    TITLE "6:cjc081_2694"
    INDEX 01 00:56:22
  TRACK 51 AUDIO
    TITLE "0:"
    INDEX 01 00:58:30
  TRACK 52 AUDIO
    TITLE "5:cjc081_2695"
    INDEX 01 00:59:00
  TRACK 53 AUDIO
    TITLE "0:"
    INDEX 01 01:00:02
  TRACK 54 AUDIO
    TITLE "6:cjc081_2696"
    INDEX 01 01:00:49
  TRACK 55 AUDIO
    TITLE "0:"
    INDEX 01 01:06:00
  TRACK 56 AUDIO
    TITLE "5:cjc081_2697"
    INDEX 01 01:06:47
  TRACK 57 AUDIO
    TITLE "0:"
    INDEX 01 01:07:64
  TRACK 58 AUDIO
    TITLE "6:cjc081_2698"
    INDEX 01 01:08:35
  TRACK 59 AUDIO
    TITLE "0:"
    INDEX 01 01:09:50
  TRACK 60 AUDIO
    TITLE "5:cjc081_2699"
    INDEX 01 01:10:20
  TRACK 61 AUDIO
    TITLE "0:"
    INDEX 01 01:11:56
  TRACK 62 AUDIO
    TITLE "6:cjc081_2700"
    INDEX 01 01:12:24
  TRACK 63 AUDIO
    TITLE "0:"
    INDEX 01 01:13:28
  TRACK 64 AUDIO
    TITLE "5:cjc081_2701"
    INDEX 01 01:14:02
  TRACK 65 AUDIO
    TITLE "0:"
    INDEX 01 01:15:11
  TRACK 66 AUDIO
    TITLE "6:cjc081_2702"
    INDEX 01 01:15:62
  TRACK 67 AUDIO
    TITLE "0:"
    INDEX 01 01:19:23
  TRACK 68 AUDIO
    TITLE "5:cjc081_2703"
    INDEX 01 01:19:66
  TRACK 69 AUDIO
    TITLE "0:"
    INDEX 01 01:21:21
  TRACK 70 AUDIO
    TITLE "6:cjc081_2704"
    INDEX 01 01:21:63
  TRACK 71 AUDIO
    TITLE "0:"
    INDEX 01 01:24:02
  TRACK 72 AUDIO
    TITLE "5:cjc081_2705"
    INDEX 01 01:24:47
  TRACK 73 AUDIO
    TITLE "0:"
    INDEX 01 01:25:60
  TRACK 74 AUDIO
    TITLE "6:cjc081_2706"
    INDEX 01 01:26:36
  TRACK 75 AUDIO
    TITLE "0:"
    INDEX 01 01:27:57
  TRACK 76 AUDIO
    TITLE "5:cjc081_2707"
    INDEX 01 01:28:24
  TRACK 77 AUDIO
    TITLE "0:"
    INDEX 01 01:29:45
  TRACK 78 AUDIO
    TITLE "6:cjc081_2708"
    INDEX 01 01:30:17
  TRACK 79 AUDIO
    TITLE "0:"
    INDEX 01 01:32:41
  TRACK 80 AUDIO
    TITLE "5:cjc081_2709"
    INDEX 01 01:33:11
  TRACK 81 AUDIO
    TITLE "0:"
    INDEX 01 01:34:22
  TRACK 82 AUDIO
    TITLE "6:cjc081_2710"
    INDEX 01 01:34:71
  TRACK 83 AUDIO
    TITLE "0:"
    INDEX 01 01:36:11
  TRACK 84 AUDIO
    TITLE "5:cjc081_2711"
    INDEX 01 01:36:56
  TRACK 85 AUDIO
    TITLE "0:"
    INDEX 01 01:37:68
  TRACK 86 AUDIO
    TITLE "6:cjc081_2712"
    INDEX 01 01:38:36
  TRACK 87 AUDIO
    TITLE "0:"
    INDEX 01 01:39:55
  TRACK 88 AUDIO
    TITLE "5:cjc081_2713"
    INDEX 01 01:40:29
  TRACK 89 AUDIO
    TITLE "0:"
    INDEX 01 01:41:44
  TRACK 90 AUDIO
    TITLE "6:cjc081_2714"
    INDEX 01 01:42:14
  TRACK 91 AUDIO
    TITLE "0:"
    INDEX 01 01:44:01
  TRACK 92 AUDIO
    TITLE "5:cjc081_2715"
    INDEX 01 01:44:48
  TRACK 93 AUDIO
    TITLE "0:"
    INDEX 01 01:45:57
  TRACK 94 AUDIO
    TITLE "6:cjc081_2716"
    INDEX 01 01:46:29
  TRACK 95 AUDIO
    TITLE "0:"
    INDEX 01 01:47:70
  TRACK 96 AUDIO
    TITLE "5:cjc081_2717"
    INDEX 01 01:48:40
  TRACK 97 AUDIO
    TITLE "0:"
    INDEX 01 01:49:53
  TRACK 98 AUDIO
    TITLE "6:cjc081_2718"
    INDEX 01 01:50:33
  TRACK 99 AUDIO
    TITLE "0:"
    INDEX 01 01:51:58
  TRACK 100 AUDIO
    TITLE "5:cjc081_2719"
    INDEX 01 01:52:28
  TRACK 101 AUDIO
    TITLE "0:"
    INDEX 01 01:53:53
  TRACK 102 AUDIO
    TITLE "6:cjc081_2720"
    INDEX 01 01:54:29
  TRACK 103 AUDIO
    TITLE "0:"
    INDEX 01 01:56:08
  TRACK 104 AUDIO
    TITLE "5:cjc081_2721"
    INDEX 01 01:56:55
  TRACK 105 AUDIO
    TITLE "0:"
    INDEX 01 01:57:58
  TRACK 106 AUDIO
    TITLE "6:cjc081_2722"
    INDEX 01 01:58:32
  TRACK 107 AUDIO
    TITLE "0:"
    INDEX 01 01:59:34
  TRACK 108 AUDIO
    TITLE "5:cjc081_2723"
    INDEX 01 02:00:06
  TRACK 109 AUDIO
    TITLE "0:"
    INDEX 01 02:01:29
  TRACK 110 AUDIO
    TITLE "6:cjc081_2724"
    INDEX 01 02:02:01
  TRACK 111 AUDIO
    TITLE "0:"
    INDEX 01 02:03:22
  TRACK 112 AUDIO
    TITLE "5:cjc081_2725"
    INDEX 01 02:03:71
  TRACK 113 AUDIO
    TITLE "0:"
    INDEX 01 02:05:34
  TRACK 114 AUDIO
    TITLE "6:cjc081_2726"
    INDEX 01 02:06:05
  TRACK 115 AUDIO
    TITLE "0:"
    INDEX 01 02:09:11
  TRACK 116 AUDIO
    TITLE "5:cjc081_2727"
    INDEX 01 02:09:58
  TRACK 117 AUDIO
    TITLE "0:"
    INDEX 01 02:11:08
  TRACK 118 AUDIO
    TITLE "6:cjc081_2728"
    INDEX 01 02:11:53
  TRACK 119 AUDIO
    TITLE "0:"
    INDEX 01 02:13:71
  TRACK 120 AUDIO
    TITLE "7:cjc081_2729"
    INDEX 01 02:15:35
  TRACK 121 AUDIO
    TITLE "0:"
    INDEX 01 02:25:53
